<mxfile host="Electron" modified="2024-05-21T10:02:40.562Z" agent="Mozilla/5.0 (X11; Linux x86_64) AppleWebKit/537.36 (KHTML, like Gecko) draw.io/24.2.5 Chrome/120.0.6099.109 Electron/28.1.0 Safari/537.36" etag="rTEftOrosy3BteNMLBBJ" version="24.2.5" type="device">
  <diagram name="Page-1" id="PXUPacLJONVvzqDXtCSw">
    <mxGraphModel dx="1434" dy="839" grid="1" gridSize="10" guides="1" tooltips="1" connect="1" arrows="1" fold="1" page="1" pageScale="1" pageWidth="827" pageHeight="1169" math="0" shadow="0">
      <root>
        <mxCell id="0" />
        <mxCell id="1" parent="0" />
        <mxCell id="yskXko5ceN0rjEHfLMD1-1" value="" style="shape=image;aspect=fixed;image=data:image/png,iVBORw0KGgoAAAANSUhEUgAAB4AAAAQ4CAIAAABnsVYUAAAAA3NCSVQICAjb4U/gAAAAGXRFWHRTb2Z0d2FyZQBnbm9tZS1zY3JlZW5zaG907wO/PgAAIABJREFUeJzs2jGSE0kURVGYXy77X+2PGGPGaAMDAVepks5ZQMaLQuoSN/L7jx8/vgEAAAAAwN/2z+kBAAAAAAC8JwEaAAAAAICEAA0AAAAAQEKABgAAAAAgIUADAAAAAJAQoAEAAAAASAjQAAAAAAAkBGgAAAAAABICNAAAAAAACQEaAAAAAICEAA0AAAAAQEKABgAAAAAgIUADAAAAAJAQoAEAAAAASAjQAAAAAAAkBGgAAAAAABICNAAAAAAACQEaAAAAAICEAA0AAAAAQEKABgAAAAAgIUADAAAAAJAQoAEAAAAASAjQAAAAAAAkBGgAAAAAABICNAAAAAAACQEaAAAAAICEAA0AAAAAQEKABgAAAAAgIUADAAAAAJAQoAEAAAAASAjQAAAAAAAkBGgAAAAAABICNAAAAAAACQEaAAAAAICEAA0AAAAAQEKABgAAAAAgIUADAAAAAJAQoAEAAAAASAjQAAAAAAAkBGgAAAAAABICNAAAAAAACQEaAAAAAICEAA0AAAAAQEKABgAAAAAgIUADAAAAAJAQoAEAAAAASAjQAAAAAAAkBGgAAAAAABICNAAAAAAACQEaAAAAAICEAA0AAAAAQEKABgAAAAAgIUADAAAAAJAQoAEAAAAASAjQAAAAAAAkBGgAAAAAABICNAAAAAAACQEaAAAAAICEAA0AAAAAAAAAAAAAAAAAAAAAAAAAAAAAAAAAAAAAAAAAAAAAAAAAAAAAAAAAAAAAAAAAAAAAAAAAAAAAAAAAAAAAAAAAAAAAAAAAAAAAAAAAAAAAAAAAAAAA8Hd8Pz0AAACAG9jd0xMA4JiZOT3hrv45PQAAAAAAgPckQAMAAAAAkBCgAQAAAABICNAAAAAAACQEaAAAAAAAEgI0AAAAAAAJARoAAAAAgIQADQAAAABAQoAGAAAAACAhQAMAAAAAkBCgAQAAAABICNAAAAAAACQEaAAAAAAAEgI0AAAAAAAJARoAAAAAgIQADQAAAABAQoAGAAAAACAhQAMAAAAAkBCgAQAAAABICNAAAAAAACQEaAAAAAAAEgI0AAAAAAAJARoAAAAAgIQADQAAAABAQoAGAAAAACAhQAMAAAAAkBCgAQAAAABICNAAAAAAACQEaAAAAAAAEgI0AAAAAAAJARoAAAAAgIQADQAAAABAQoAGAAAAACAhQAMAAAAAkBCgAQAAAABICNAAAAAAACQEaAAAAAAAEgI0AAAAAAAJARoAAAAAgIQADQAAAABAQoAGAAAAACAhQAMAAAAAkBCgAQAAAABICNAAAAAAACSu0wMAAADgV83M6QkAPNXunp7AH3EDGgAAAACAhAANAAAAAEBCgAYAAAAAICFAAwAAAACQEKABAAAAAEgI0AAAAAAAJARoAAAAAAASAjQAAAAAAAkBGgAAAACAhAANAAAAAEBCgAYAAAAAICFAAwAAAACQEKABAAAAAEgI0AAAAAAAJK7TAwAAAD7O7p6eAAA84I7v7pk5PeHbNzegAQAAAACICNAAAAAAACQEaAAAAAAAEgI0AAAAAAAJARoAAAAAgIQADQAAAABAQoAGAAAAACAhQAMAAAAAkBCgAQAAAABICNAAAAAAACQEaAAAAAAAEgI0AAAAAAAJARoAAAAAgIQADQAAAABAQoAGAAAAACAhQAMAAAAAkBCgAQAAAABICNAAAAAAACQEaAAAAAAAEgI0AAAAAAAJARoAAAAAgIQADQAAAABAQoAGAAAAACAhQAMAAAAAkBCgAQAAAABICNAAAAAAACQEaAAAAAAAEgI0AAAAAAAJARoAAAAAgIQADQAAAABAQoAGAAAAACAhQAMAAAAAkBCgAQAAAABICNAAAAAAACQEaAAAAAAAEgI0AAAAAAAJARoAAAAAgIQADQAAAABAQoAGAAAAACAhQAMAAAAAkBCgAQAAAABICNAAAAAAACQEaAAAAAAAEgI0AAAAAACJ6/QAAH5ud09P+Agzc3rCR/B5fg6fZ+BR/m4A8Pru+LbyP6Cv3IAGAAAAACAhQAMAAAAAkBCgAQAAAABICNAAAAAAACQEaAAAAAAAEgI0AAAAAAAJARoAAAAAgIQADQAAAABAQoAGAAAAACAhQAMAAAAAkBCgAQAAAABICNAAAAAAACQEaAAAAAAAEgI0AAAAAAAJARoAAAAAgIQADQAAAABAQoAGAAAAACAhQAMAAAAAkBCgAQAAAABICNAAAAAAACQEaAAAAAAAEgI0AAAAAAAJARoAAAAAgIQADQAAAABAQoAGAAAAACAhQAMAAAAAkBCgAQAAAABICNAAAAAAACQEaAAAAAAAEgI0AAAAAAAJARoAAAAAgIQADQAAAABAQoAGAAAAACAhQAMAAAAAkBCgAQAAAABICNAAAAAAACQEaAAAAAAAEgI0AAAAAAAJARoAAAAAgIQADQAAAABAQoAGAAAAACAhQAMAAAAAkBCgAQAAAABICNAAAAAAACQEaAAAAAAAEgI0AAAAAAAJARoAAAAAgIQADQAAAABAQoAGAAAAACAhQAMAAAAAkBCgAQAAAABICNAAAAAAACQEaAAAAAAAEgI0AAAAAAAJARoAAAAAgIQADQAAAABAQoAGAAAAACAhQAMAAAAAkBCgAQAAAABIXKcHAPA+Zub0hIft7ukJH8FnAwDuxXsQfsUdf+XC87kBDQAAAABAQoAGAAAAACAhQAMAAAAAkBCgAQAAAABICNAAAAAAACQEaAAAAAAAEgI0AAAAAAAJARoAAAAAgIQADQAAAABAQoAGAAAAACAhQAMAAAAAkBCgAQAAAABICNAAAAAAACQEaAAAAAAAEgI0AAAAAAAJARoAAAAAgIQADQAAAABAQoAGAAAAACAhQAMAAAAAkBCgAQAAAABICNAAAAAAACQEaAAAAAAAEgI0AAAAAAAJARoAAAAAgIQADQAAAABAQoAGAAAAACAhQAMAAAAAkBCgAQAAAABICNAAAAAAACSu0wMAAACA37G7pyfAR+u+gzMTnQzP5wY0AAAAAAAJARoAAAAAgIQADQAAAABAQoAGAAAAACAhQAMAAAAAkBCgAQAAAABICNAAAAAAACQEaAAAAAAAEgI0AAAAAAAJARoAAAAAgIQADQAAAABAQoAGAAAAACAhQAMAAAAAkBCgAQAAAABICNAAAAAAACQEaAAAAAAAEgI0AAAAAAAJARoAAAAAgIQADQAAAABAQoAGAAAAACAhQAMAAAAAkBCgAQAAAABICNAAAAAAACQEaAAAAAAAEgI0AAAAAAAJARoAAAAAgIQADQAAAABAQoAGAAAAACAhQAMAAAAAkLhODwB4ht09PeFhM3N6wkfwnJ/DdxCAT3bH92DHG5bnu+N3sNvsO8jzuQENAAAAAEBCgAYAAAAAICFAAwAAAACQEKABAAAAAEgI0AAAAAAAJARoAAAAAAASAjQAAAAAAAkBGgAAAACAhAANAAAAAEBCgAYAAAAAICFAAwAAAACQEKABAAAAAEgI0AAAAAAAJARoAAAAAAASAjQAAAAAAAkBGgAAAACAhAANAAAAAEBCgAYAAAAAICFAAwAAAACQEKABAAAAAEgI0AAAAAAAJARoAAAAAAASAjQAAAAAAAkBGgAAAACAhAANAAAAAEBCgAYAAAAAICFAAwAAAACQEKABAAAAAEgI0AAAAAAAJK7TAwAAAIDXMjPRybsbndzxNL6649O442Z4J25AAwAAAACQEKABAAAAAEgI0AAAAAAAJARoAAAAAAASAjQAAAAAAAkBGgAAAACAhAANAAAAAEBCgAYAAAAAICFAAwAAAACQEKABAAAAAEgI0AAAAAAAJARoAAAAAAASAjQAAAAAAAkBGgAAAACAhAANAAAAAEBCgAYAAAAAICFAAwAAAACQEKABAAAAAEgI0AAAAAAAJARoAAAAAAASAjQAAAAAAAkBGgAAAACAhAANAAAAAEBCgAYAAAAAICFAAwAAAACQEKABAAAAAEgI0AAAAAAAJARoAAAAAAASAjQAAAAAAInr9AAAOGl3T0942MycnvCwO2722QDgb7nj3+c7vgc7d3wad/zUdZu7f8E7Pmd4PjegAQAAAABICNAAAAAAACQEaAAAAAAAEgI0AAAAAAAJARoAAAAAgIQADQAAAABAQoAGAAAAACAhQAMAAAAAkBCgAQAAAABICNAAAAAAACQEaAAAAAAAEgI0AAAAAAAJARoAAAAAgIQADQAAAABAQoAGAAAAACAhQAMAAAAAkBCgAQAAAABICNAAAAAAACQEaAAAAAAAEgI0AAAAAAAJARoAAAAAgIQADQAAAABAQoAGAAAAACAhQAMAAAAAkBCgAQAAAABICNAAAAAAACQEaAAAAAAAEgI0AAAAAAAJARoAAAAAgMR1egAAAADwO3b39ISHzUx08h2fRqd7Gv4Fv7rjc4bncwMaAAAAAICEAA0AAAAAQEKABgAAAAAgIUADAAAAAJAQoAEAAAAASAjQAAAAAAAkBGgAAAAAABICNAAAAAAACQEaAAAAAICEAA0AAAAAQEKABgAAAAAgIUADAAAAAJAQoAEAAAAASAjQAAAAAAAkBGgAAAAAABICNAAAAAAACQEaAAAAAICEAA0AAAAAQEKABgAAAAAgIUADAAAAAJAQoAEAAAAASAjQAAAAAAAkBGgAAAAAABICNAAAAAAACQEaAAAAAICEAA0AAAAAQEKABgAAAAAgIUADAAAAAJAQoAEAAAAASFynBwDASTNzegIAwG/yS+ar7mnsbnTyHXkaX/kOwq9wAxoAAAAAgIQADQAAAABAQoAGAAAAACAhQAMAAAAAkBCgAQAAAABICNAAAAAAACQEaAAAAAAAEgI0AAAAAAAJARoAAAAAgIQADQAAAABAQoAGAAAAACAhQAMAAAAAkBCgAQAAAABICNAAAAAAACSu0wMAAAD+yO6engAAwM+5AQ0AAAAAQEKABgAAAAAgIUADAAAAAJAQoAEAAAAASAjQAAAAAAAkBGgAAAAAABICNAAAAAAACQEaAAAAAICEAA0AAAAAQEKABgAAAAAgIUADAAAAAJAQoAEAAAAASAjQAAAAAAAkBGgAAAAAABLX6QEAAADAa9nd6OSZiU7uNt+R5wy8DjegAQAAAABICNAAAAAAACQEaAAAAAAAEgI0AAAAAAAJARoAAAAAgIQADQAAAABAQoAGAAAAACAhQAMAAAAAkBCgAQAAAABICNAAAAAAACQEaAAAAAAAEgI0AAAAAAAJARoAAAAAgIQADQAAAABAQoAGAAAAACAhQAMAAAAAkBCgAQAAAABICNAAAAAAACQEaAAAAAAAEgI0AAAAAAAJARoAAAAAgIQADQAAAABAQoAGAAAAACAhQAMAAAAAkBCgAQAAAABICNAAAAAAACQEaAAAAAAAEgI0AAAAAAAJARoAAAAAgMR1egAAAADwWmYmOnl3o5PvqHvOnTt+Nu74nOGduAENAAAAAEBCgAYAAAAAICFAAwAAAACQEKABAAAAAEgI0AAAAAAAJARoAAAAAAASAjQAAAAAAAkBGgAAAACAhAANAAAAAEBCgAYAAAAAICFAAwAAAACQEKABAAAAAEgI0AAAAAAAJARoAAAAAAAS1+kBAADAC9nd0xMAAHgfbkADAAAAAJAQoAEAAAAASAjQAAAAAAAkBGgAAAAAABICNAAAAAAACQEaAAAAAICEAA0AAAAAQEKABgAAAAAgIUADAAAAAJAQoAEAAAAASAjQAAAAAAAkBGgAAAAAABICNAAAAAAACQEaAAAAAIDEdXoAAAAAwCfa3ejkmYlO7jYD78oNaAAAAAAAEgI0AAAAAAAJARoAAAAAgIQADQAAAABAQoAGAAAAACAhQAMAAAAAkBCgAQAAAABICNAAAAAAACQEaAAAAAAAEgI0AAAAAAAJARoAAAAAgIQADQAAAABAQoAGAAAAACAhQAMAAAAAkBCgAQAAAABICNAAAAAAACQEaAAAAAAAEgI0AAAAAAAJARoAAAAAgIQADQAAAABAQoAGAAAAACAhQAMAAAAAkBCgAQAAAABICNAAAAAAACQEaAAAAAAAEgI0AAAAAAAJARoAAAAAgIQADQAAAABAQoAGAAAAACBxnR4A3M/unp7wsJk5PQE+mr8bAMB/ujfsHX9vdO74NPz6gnflBjQAAAAAAAkBGgAAAACAhAANAAAAAEBCgAYAAAAAICFAAwAAAACQEKABAAAAAEgI0AAAAAAAJARoAAAAAAASAjQAAAAAAAkBGgAAAACAhAANAAAAAEBCgAYAAAAAICFAAwAAAACQEKABAAAAAEhcpwcAAAAvZGZOT/gIu3t6AgDAM7gBDQAAAABAQoAGAAAAACAhQAMAAAAAkBCgAQAAAABICNAAAAAAACQEaAAAAAAAEgI0AAAAAAAJARoAAAAAgIQADQAAAABAQoAGAAAAACAhQAMAAAAAkBCgAQAAAABICNAAAAAAACQEaAAAAAAAEtfpAQAAAACva2aik3c3OhngdbgBDQAAAABAQoAGAAAAACAhQAMAAAAAkBCgAQAAAABICNAAAAAAACQEaAAAAAAAEgI0AAAAAAAJARoAAAAAgIQADQAAAABAQoAGAAAAACAhQAMAAAAAkBCgAQAAAABICNAAAAAAACQEaAAAAAAAEgI0AAAAAAAJARoAAAAAgIQADQAAAABAQoAGAAAAACAhQAMAAAAAkBCgAQAAAABICNAAAAAAACQEaAAAAAAAEgI0AAAAAAAJARoAAAAAgIQADQAAAABAQoAGAAAAACAhQAMAAAAAkBCgAQAAAABICNAAAAAAACSu0wMAAAAA/tTMRCfvbnSyzcAncAMaAAAAAICEAA0AAAAAQEKABgAAAAAgIUADAAAAAJAQoAEAAAAASAjQAAAAAAAkBGgAAAAAABICNAAAAAAACQEaAAAAAICEAA0AAAAAQEKABgAAAAAgIUADAAAAAJAQoAEAAAAASAjQAAAAAAAkBGgAAAAAABICNAAAAAAACQEaAAAAAICEAA0AAAAAQEKABgAAAAAgIUADAAAAAJAQoAEAAAAASAjQAAAAAAAkBGgAAAAAABICNAAAAAAACQEaAAAAAICEAA0AAAAAQEKABgAAAAAgIUADAAAAAJAQoAEAAAAASFynBwAAAADwN83M6QkA/3MDGgAAAACAhAANAAAAAEBCgAYAAAAAICFAAwAAAACQEKABAAAAAEgI0AAAAAAAJARoAAAAAAASAjQAAAAAAAkBGgAAAACAhAANAAAAAEBCgAYAAAAAICFAAwAAAACQEKABAAAAAEgI0AAAAAAAJARoAAAAAAASAjQAAAAAAAkBGgAAAACAhAANAAAAAEBCgAYAAAAAICFAAwAAAACQEKABAAAAAEgI0AAAAAAAJARoAAAAAAASAjQAAAAAAAkBGgAAAACAhAANAAAAAEBCgAYAAAAAICFAAwAAAACQEKABAAAAAEhcpwfwunb39AQAAAA4bGZOTwC4MTegAQAAAABICNAAAAAAACQEaAAAAAAAEgI0AAAAAAAJARoAAAAAgIQADQAAAABAQoAGAAAAACAhQAMAAAAAkBCgAQAAAABICNAAAAAAACQEaAAAAAAAEgI0AAAAAAAJARoAAAAAgIQADQAAAABAQoAGAAAAACAhQAMAAAAAkBCgAQAAAABICNAAAAAAACQEaAAAAAAAEgI0AAAAAAAJARoAAAAAgIQADQAAAABAQoAGAAAAACAhQAMAAAAAkBCgAQAAAABICNAAAAAAACQEaAAAAAAAEgI0AAAAAAAJARoAAAAAgMR1egAAAABn7O7pCQ+bmdMTAHiqO76t+MoNaAAAAAAAEgI0AAAAAAAJARoAAAAAgIQADQAAAABAQoAGAAAAACAhQAMAAAAAkBCgAQAAAABICNAAAAAAACQEaAAAAAAAEgI0AAAAAAAJARoAAAAAgIQADcC/7drBiuMwFEVBMvI2//+1D2Y9i4E2zYnsuGrdiCsTaDgIAAAAICFAAwAAAACQEKABAAAAAEgI0AAAAAAAJARoAAAAAAASAjQAAAAAAAkBGgAAAACAhAANAAAAAEBCgAYAAAAAICFAAwAAAACQEKABAAAAAEgI0AAAAAAAJARoAAAAAAASAjQAAAAAAAkBGgAAAACAhAANAAAAAEBCgAYAAAAAICFAAwAAAACQOHYPeIqZ2T3htLXW7gmP4LfBN/F7/gzf+TN8ZwAAgN/zAhoAAAAAgIQADQAAAABAQoAGAAAAACAhQAMAAAAAkBCgAQAAAABICNAAAAAAACQEaAAAAAAAEgI0AAAAAAAJARoAAAAAgIQADQAAAABAQoAGAAAAACAhQAMAAAAAkBCgAQAAAABICNAAAAAAACSO3QMAAAAeZ621e8JpM7N7AgBsc8f/3RfhBTQAAAAAAAkBGgAAAACAhAANAAAAAEBCgAYAAAAAICFAAwAAAACQEKABAAAAAEgI0AAAAAAAJARoAAAAAAASAjQAAAAAAAkBGgAAAACAhAANAAAAAEBCgAYAAAAAICFAAwAAAACQEKABAAAAAEgcuwcAAADAT83M7gkAwAleQAMAAAAAkBCgAQAAAABICNAAAAAAACQEaAAAAAAAEgI0AAAAAAAJARoAAAAAgIQADQAAAABAQoAGAAAAACAhQAMAAAAAkBCgAQAAAABICNAAAAAAACQEaAAAAAAAEgI0AAAAAAAJARoAAAAAgIQADQAAAABAQoAGAAAAACAhQAMAAAAAkBCgAQAAAABICNAAAAAAACQEaAAAAAAAEgI0AAAAAAAJARoAAAAAgIQADQAAAABAQoAGAAAAACAhQAMAAAAAkBCgAQAAAABICNAAAAAAACQEaAAAAAAAEgI0AAAAAACJY/cArmtmdk8AAAAAAG7MC2gAAAAAABICNAAAAAAACQEaAAAAAICEAA0AAAAAQEKABgAAAAAgIUADAAAAAJAQoAEAAAAASAjQAAAAAAAkBGgAAAAAABICNAAAAAAACQEaAAAAAICEAA0AAAAAQEKABgAAAAAgIUADAAAAAJA4dg8AAADgBtZauycAAPfjBTQAAAAAAAkBGgAAAACAhAANAAAAAEBCgAYAAAAAICFAAwAAAACQEKABAAAAAEgI0AAAAAAAJARoAAAAAAASAjQAAAAAAAkBGgAAAACAhAANAAAAAEBCgAYAAAAAICFAAwAAAACQEKABAAAAAEgI0AAAAAAAJARoAAAAAAASAjQAAAAAAAkBGgAAAACAhAANAAAAAEBCgAYAAAAAICFAAwAAAACQEKABAAAAAEgI0AAAAAAAJARoAAAAAAASAjQAAAAAAAkBGgAAAACAhAANAAAAAEBCgAYAAAAAICFAAwAAAACQEKABAAAAAEgI0AAAAAAAJARoAAAAAAASAjQAAAAAAAkBGgAAAACAhAANAAAAAEBCgAYAAAAAICFAAwAAAACQEKABAAAAAEgI0AAAAAAAJARoAAAAAAASAjQAAAAAAAkBGgAAAACAhAANAAAAAEBCgAYAAAAAIPHaPQCebmZ2TwDgS6y1dk8AAAD4hxfQAAAAAAAkBGgAAAAAABICNAAAAAAACQEaAAAAAICEAA0AAAAAQEKABgAAAAAgIUADAAAAAJAQoAEAAAAASAjQAAAAAAAkBGgAAAAAABICNAAAAAAACQEaAAAAAICEAA0AAAAAQEKABgAAAAAgIUADAAAAAJAQoAEAAAAASAjQAAAAAAAkBGgAAAAAABICNAAAAAAACQEaAAAAAICEAA0AAAAAQEKABgAAAAAgIUADAAAAAJAQoAEAAAAASAjQAAAAAAAkBGgAAAAAABICNAAAAAAACQEaAAAAAICEAA0AAAAAQEKABgAAAAAgIUADAAAAAJAQoAEAAAAASAjQAAAAAAAkBGgAAAAAABICNAAAAAAACQEaAAAAAICEAA0AAAAAQEKABgAAAAAgIUADAAAAAJAQoAEAAAAASAjQAAAAAAAkBGgAAAAAABICNAAAAAAACQEaAAAAAICEAA0AAAAAQEKABgAAAAAgIUADAAAAAJAQoAEAAAAASAjQAAAAAAAkBGgAAAAAABICNAAAAAAACQEaAAAAAICEAA0AAAAAQEKABgAAAAAgIUADAAAAAJAQoAEAAAAASAjQAAAAAAAkBGgAAAAAABICNAAAAAAAAAAAAAAAAAAAAAAAAAAAAAAAAAAAAAAAAAAAAAAAAAAAAAAAAAAAAAAAAAAAAAAAAAAAAAAAAAAAAAAAAAAAAAAAAAAAAAAAAAAAAAAAAAAAAAAAAAAAAAAAAAAAAAAAAAAAAAAAAAAAAAAAAAAAAAAAAAAAAAAAAAAAAAAAAAAAAAAAAAAAAAAAAAAAAAAAAAAAAAAAAAAAAAAAAAAAAAAAAAAAAAAAAAAAAAAAAAAAAAAAAAAAAAAAAAAAAAAAAAAAAAAAAAAAAAAAAAAAAAAAAAAAAAAAAAAAAAAAAAAAAAAAAAAAAAAAAAAAAAAAAAAAAAAAAAAAAAAAAAAAAAAAAAAAAAAAAAAAAAAAAAAAAAAAAAAAAAAAAAAAAAAAAAAAAAAAAAAAAAAAAAAAAAAAAAAAAAAAAAAAAAAAAAAAAAAAAAAAAAAAAAAAAAD/9do9AAAAgBuYmd0TTltr/fyPXfCCTl0QgGv6s3sAAAAAAADfSYAGAAAAACAhQAMAAAAAkBCgAQAAAABICNAAAAAAACQEaAAAAAAAEgI0AAAAAAAJARoAAAAAgIQADQAAAABAQoAGAAAAACAhQAMAAAAAkBCgAQAAAABICNAAAAAAACQEaAAAAAAAEsfuAQAAANzAWis6eWaikzunvoYLAvBkXkADAAAAAJAQoAEAAAAASAjQAAAAAAAkBGgAAAAAABICNAAAAAAACQEaAAAAAICEAA0AAAAAQEKABgAAAAAgIUADAAAGsnx+AAADIElEQVQAAJAQoAEAAAAASAjQAAAAAAAkBGgAAAAAABICNAAAAAAACQEaAAAAAIDEsXsAAAAANzAz0clrrejkizh1we47d77+ggD8hhfQAAAAAAAkBGgAAAAAABICNAAAAAAACQEaAAAAAICEAA0AAAAAQEKABgAAAAAgIUADAAAAAJAQoAEAAAAASAjQAAAAAAAkBGgAAAAAABICNAAAAAAACQEaAAAAAICEAA0AAAAAQEKABgAAAAAgceweAAAAwKPNTHTyWis6udt8EV9/QQA+xgtoAAAAAAASAjQAAAAAAAkBGgAAAACAhAANAAAAAEBCgAYAAAAAICFAAwAAAACQEKABAAAAAEgI0AAAAAAAJARoAAAAAAASAjQAAAAAAAkBGgAAAACAhAANAAAAAEBCgAYAAAAAICFAAwAAAACQeL3f790bAAAAAAD4Ql5AAwAAAACQEKABAAAAAEgI0AAAAAAAJARoAAAAAAASAjQAAAAAAAkBGgAAAACAhAANAAAAAEBCgAYAAAAAICFAAwAAAACQEKABAAAAAEgI0AAAAAAAJARoAAAAAAASAjQAAAAAAAkBGgAAAACAhAANAAAAAEBCgAYAAAAAICFAAwAAAACQEKABAAAAAEgI0AAAAAAAJARoAAAAAAASAjQAAAAAAAkBGgAAAACAhAANAAAAAEBCgAYAAAAAICFAAwAAAACQEKABAAAAAEgI0AAAAAAAJARoAAAAAAASAjQAAAAAAAkBGgAAAACAhAANAAAAAEBCgAYAAAAAICFAAwAAAACQEKABAAAAAEgI0AAAAAAAJARoAAAAAAASAjQAAAAAAAkBGgAAAACAhAANAAAAAEBCgAYAAAAAICFAAwAAAACQEKABAAAAAEgI0AAAAAAAJARoAAAAAAASAjQAAAAAAAkBGgAAAACAhAANAAAAAEBCgAYAAAAAICFAAwAAAACQEKABAAAAAEgI0AAAAAAAJARoAAAAAAASAjQAAAAAAAkBGgAAAACAhAANAAAAAEBCgAYAAAAAICFAAwAAAACQEKABAAAAAEgI0AAAAAAAJP4CZ+/mTqcKJ3wAAAAASUVORK5CYII=;" parent="1" vertex="1">
          <mxGeometry x="31" y="40" width="195.25" height="110" as="geometry" />
        </mxCell>
        <mxCell id="yskXko5ceN0rjEHfLMD1-2" value="" style="shape=image;aspect=fixed;image=data:image/png,iVBORw0KGgoAAAANSUhEUgAAB4AAAAQ4CAIAAABnsVYUAAAAA3NCSVQICAjb4U/gAAAAGXRFWHRTb2Z0d2FyZQBnbm9tZS1zY3JlZW5zaG907wO/PgAAIABJREFUeJzs2sFq20oYgFGlI++96fu/Yvdm6F10Y7gU7JIvGinn7AJG/BqPbOdjPn7+/Pl4PDYAAAAAAPg8t9ttfzwe+77fbrePj4+j5wEAAAAA4PR+//79eDwej8ePbdvUZwAAAAAAPsvHx8ftdtu27cefP46eBwAAAACA6/iTnX8cPQYAAAAAANckQAMAAAAAkBCgAQAAAABICNAAAAAAACQEaAAAAAAAEgI0AAAAAAAJARoAAAAAgIQADQAAAABAQoAGAAAAACAhQAMAAAAAkBCgAQAAAABICNAAAAAAACQEaAAAAAAAEgI0AAAAAAAJARoAAAAAgIQADQAAAABAQoAGAAAAACAhQAMAAAAAkBCgAQAAAABICNAAAAAAACQEaAAAAAAAEgI0AAAAAAAJARoAAAAAgIQADQAAAABAQoAGAAAAACAhQAMAAAAAkBCgAQAAAABICNAAAAAAACQEaAAAAAAAEgI0AAAAAAAJARoAAAAAgIQADQAAAABAQoAGAAAAACAhQAMAAAAAkBCgAQAAAABICNAAAAAAACQEaAAAAAAAEgI0AAAAAAAJARoAAAAAgIQADQAAAABAQoAGAAAAACAhQAMAAAAAkBCgAQAAAABICNAAAAAAACQEaAAAAAAAEgI0AAAAAAAJARoAAAAAgIQADQAAAABAQoAGAAAAACAhQAMAAAAAkBCgAQAAAABICNAAAAAAACQEaAAAAAAAEgI0AAAAAAAJARoAAAAAgIQADQAAAABA436/Hz0CAAAAAABXc7/fnYAGAAAAACAhQAMAAAAAkBCgAQAAAABICNAAAAAAACQEaAAAAAAAEgI0AAAAAAAJARoAAAAAgIQADQAAAABAQoAGAAAAACAhQAMAAAAAkBCgAQAAAABICNAAAAAAACQEaAAAAAAAEgI0AAAAAAAJARoAAAAAgIQADQAAAABAQoAGAAAAACAhQAMAAAAAkBCgAQAAAABICNAAAAAAACQEaAAAAAAAEgI0AAAAAAAJARoAAAAAgIQADQAAAABAQoAGAAAAACAhQAMAAAAAkBCgAQAAAABICNAAAAAAACQEaAAAAAAAEgI0AAAAAAAJARoAAAAAgIQADQAAAABAQoAGAAAAACAhQAMAAAAAkBCgAQAAAABICNAAAAAAACQEaAAAAAAAEgI0AAAAAAAJARoAAAAAgIQADQAAAABAQoAGAAAAACAhQAMAAAAAkBCgAQAAAABICNAAAAAAACQEaAAAAAAAEgI0AAAAAAAJARoAAAAAgIQADQAAAABAQoAGAAAAACAhQAMAAAAAkBCgAQAAAABICNAAAAAAACQEaAAAAAAAEgI0AAAAAAAJARoAAAAAgIQADQAAAABAQoAGAAAAACAhQAMAAAAAkBCgAQAAAABICNAAAAAAACQEaAAAAAAAEgI0AAAAAAAJARoAAAAAgIQADQAAAABAQoAGAAAAACAhQAMAAAAAkBCgAQAAAABICNAAAAAAACQEaAAAAAAAEgI0AAAAAAAJARoAAAAAgIQADQAAAABAQoAGAAAAACAhQAMAAAAAkBCgAQAAAABICNAAAAAAACQEaAAAAAAAEgI0AAAAAAAJARoAAAAAgIQADQAAAABAQoAGAAAAACAhQAMAAAAAkBCgAQAAAABICNAAAAAAACQEaAAAAAAAEgI0AAAAAAAJARoAAAAAgIQADQAAAABAQoAGAAAAACAhQAMAAAAAkBCgAQAAAABICNAAAAAAACQEaAAAAAAAEgI0AAAAAAAJARoAAAAAgIQADQAAAABAQoAGAAAAACAhQAMAAAAAkBCgAQAAAABICNAAAAAAACQEaAAAAAAAEgI0AAAAAAAJARoAAAAAgIQADQAAAABAQoAGAAAAACAhQAMAAAAAkBCgAQAAAABICNAAAAAAACQEaAAAAAAAEgI0AAAAAAAJARoAAAAAgIQADQAAAABAQoAGAAAAACAhQAMAAAAAkBCgAQAAAABICNAAAAAAACQEaAAAAAAAEgI0AAAAAAAJARoAAAAAgMS+bduc8+gxAAAAAAA4gTHG6y92AhoAAAAAgIQADQAAAABAQoAGAAAAACAhQAMAAAAAkBCgAQAAAABICNAAAAAAACQEaAAAAAAAEgI0AAAAAAAJARoAAAAAgIQADQAAAABAQoAGAAAAACAhQAMAAAAAkBCgAQAAAABICNAAAAAAACT2bdvGGEePAQAAAADA1TgBDQAAAABAQoAGAAAAACAhQAMAAAAAkBCgAQAAAABICNAAAAAAACQEaAAAAAAAEgI0AAAAAAAJARoAAAAAgIQADQAAAABAQoAGAAAAACAhQAMAAAAAkBCgAQAAAABICNAAAAAAACQEaAAAAAAAEvvRA7CuOefrLx5jdJO87owzAwAFvwrgqjzdAHAuTkADAAAAAJAQoAEAAAAASAjQAAAAAAAkBGgAAAAAABICNAAAAAAACQEaAAAAAICEAA0AAAAAQEKABgAAAAAgIUADAAAAAJAQoAEAAAAASAjQAAAAAAAkBGgAAAAAABICNAAAAAAACQEaAAAAAICEAA0AAAAAQEKABgAAAAAgIUADAAAAAJAQoAEAAAAASAjQAAAAAAAkBGgAAAAAABICNAAAAAAACQEaAAAAAICEAA0AAAAAQEKABgAAAAAgIUADAAAAAJAQoAEAAAAASAjQAAAAAAAkBGgAAAAAABICNAAAAAAAif3oAVjXGOP1F885T3fltywyxlsWeVPecvm98ZbLr8blnxT4FN2HTGeR75S3XP7DfJEb7LjBZ2b+ZzbS1zjjb9Ez7g2r8ezyn0iLzAx/4wQ0AAAAAAAJARoAAAAAgIQADQAAAABAQoAGAAAAACAhQAMAAAAAkBCgAQAAAABICNAAAAAAACQEaAAAAAAAEgI0AAAAAAAJARoAAAAAgIQADQAAAABAQoAGAAAAACAhQAMAAAAAkBCgAQAAAABI7EcPwEWMMV5/8ZwzujILWmRvLLLrFpl5kdWAb8sz+Ky7wcuv8yI3uMgYl79B/tki76Dfdc8WmdkYxgC+jBPQAAAAAAAkBGgAAAAAABICNAAAAAAACQEaAAAAAICEAA0AAAAAQEKABgAAAAAgIUADAAAAAJAQoAEAAAAASAjQAAAAAAAkBGgAAAAAABICNAAAAAAACQEaAAAAAICEAA0AAAAAQEKABgAAAAAgsR89AADXMcZ4/cVzzm4SWNkZn5S3ZuZrLPKmLDLGIk/KGb21dIu83W8548wdT8qzRfaGMZ51Y5zx1xdciRPQAAAAAAAkBGgAAAAAABICNAAAAAAACQEaAAAAAICEAA0AAAAAQEKABgAAAAAgIUADAAAAAJAQoAEAAAAASAjQAAAAAAAkBGgAAAAAABICNAAAAAAACQEaAAAAAICEAA0AAAAAQEKABgAAAAAgsR89APCGOefRI8CnGWMcPcK2eaxY3hmflEVm7liNr7HIOvuaOLtFNtIiLn+D8CkWeVJ8AXElTkADAAAAAJAQoAEAAAAASAjQAAAAAAAkBGgAAAAAABICNAAAAAAACQEaAAAAAICEAA0AAAAAQEKABgAAAAAgIUADAAAAAJAQoAEAAAAASAjQAAAAAAAkBGgAAAAAABICNAAAAAAACQEaAAAAAIDEfvQAcA5jjNdfPOe89hjwN2/turf2M1zJGT+fz/jAdl+aZ1yNMzrjz55uIy2yn8/4pCyykbrVWOQG37LI3uBbOePHF1yJE9AAAAAAACQEaAAAAAAAEgI0AAAAAAAJARoAAAAAgIQADQAAAABAQoAGAAAAACAhQAMAAAAAkBCgAQAAAABICNAAAAAAACQEaAAAAAAAEgI0AAAAAAAJARoAAAAAgIQADQAAAABAQoAGAAAAACDxcb/ff/36dfQYAHw7c86jR9i2bRtjHD0CAACwCv+nwOe63+9OQAMAAAAAkBCgAQAAAABICNAAAAAAACQEaAAAAAAAEgI0AAAAAAAJARoAAAAAgIQADQAAAABAQoAGAAAAACAhQAMAAAAAkBCgAQAAAABICNAAAAAAACQEaAAAAAAAEgI0AAAAAAAJARoAAAAAgMS+bduc8+gxAOAYvgQBAIDV+D+FxY0xXn+xE9AAAAAAACQEaAAAAAAAEgI0AAAAAAAJARoAAAAAgIQADQAAAABAQoAGAAAAACAhQAMAAAAAkBCgAQAAAABICNAAAAAAACQEaAAAAAAAEgI0AAAAAAAJARoAAAAAgIQADQAAAABAQoAGAAAAACCxb9s2xjh6DAAAAAAArsYJaAAAAAAAEgI0AAAAAAAJARoAAAAAgIQADQAAAABAQoAGAAAAACAhQAMAAAAAkBCgAQAAAABICNAAAAAAACQEaAAAAAAAEgI0AAAAAAAJARoAAAAAgIQADQAAAABAQoAGAAAAACAhQAMAAAAAkBCgAQAAAABICNAAAAAAACQEaAAAAAAAEgI0AAAAAAAJARoAAAAAgIQADQAAAABAQoAGAAAAACAhQAMAAAAAkBCgAQAAAABICNAAAAAAACQEaAAAAAAAEgI0AAAAAAAJARoAAAAAgIQADQAAAABAQoAGAAAAACAhQAMAAAAAkBCgAQAAAABICNAAAAAAACQEaAAAAAAAEgI0AAAAAAAJARoAAAAAgIQADQAAAABAQoAGAAAAACAhQAMAAAAAkBCgAQAAAABICNAAAAAAACQEaAAAAAAAEgI0AAAAAAAJARoAAAAAgIQADQAAAABAQoAGAAAAACAhQAMAAAAAkBCgAQAAAABICNAAAAAAACQEaAAAAAAAEgI0AAAAAAAJARoAAAAAgIQADQAAAABAQoAGAAAAACAhQAMAAAAAkBCgAQAAAABICNAAAAAAACQEaAAAAAAAEgI0AAAAAAAJARoAAAAAgIQADQAAAABAQoAGAAAAACAhQAMAAAAAkBCgAQAAAABICNAAAAAAACQEaAAAAAAAEgI0AAAAAAAJARoAAAAAgIQADQAAAABAQoAGAAAAACAhQAMAAAAAkBCgAQAAAABICNAAAAAAACQEaAAAAAAAEgI0AAAAAAAJARoAAAAAgIQADQAAAABAQoAGAAAAACAhQAMAAAAAkBCgAQAAAABICNAAAAAAACQEaAAAAAAAEgI0AAAAAAAJARoAAAAAgIQADQAAAABAQoAGAAAAACAhQAMAAAAAkBCgAQAAAABICNAAAAAAACQEaAAAAAAAEgI0AAAAAAAJARoAAAAAgIQADQAAAABAQoAGAAAAACAhQAMAAAAAkBCgAQAAAABICNAAAAAAACQEaAAAAAAAEgI0AAAAAAAJARoAAAAAgIQADQAAAABAQoAGAAAAACAhQAMAAAAAkBCgAQAAAABICNAAAAAAACQEaAAAAAAAEgI0AAAAAAAJARoAAAAAgIQADQAAAABAQoAGAAAAACAhQAMAAAAAkBCgAQAAAABICNAAAAAAACQEaAAAAAAAEgI0AAAAAAAJARoAAAAAgIQADQAAAABAQoAGAAAAACAhQAMAAAAAkBCgAQAAAABICNAAAAAAACQEaAAAAAAAEgI0AAAAAAAJARoAAAAAgIQADQAAAABAQoAGAAAAACAhQAMAAAAAkBCgAQAAAABICNAAAAAAACQEaAAAAAAAEgI0AAAAAAAJARoAAAAAgIQADQAAAABAQoAGAAAAACAhQAMAAAAAkBCgAQAAAABICNAAAAAAACQEaAAAAAAAEgI0AAAAAAAJARoAAAAAgIQADQAAAABAQoAGAAAAACAhQAMAAAAAkBCgAQAAAABICNAAAAAAACQEaAAAAAAAEgI0AAAAAAAJARoAAAAAgIQADQAAAABAQoAGAAAAACAhQAMAAAAAkBCgAQAAAABICNAAAAAAACQEaAAAAAAAEgI0AAAAAAAJARoAAAAAgIQADQAAAABAQoAGAAAAACAhQAMAAAAAkBCgAQAAAABICNAAAAAAACQEaAAAAAAAEgI0AAAAAAAJARoAAAAAgIQADQAAAABAYj96AAAAPsec8+gR3jbGiK5sNZ5ZDQAAjuIENAAAAAAACQEaAAAAAICEAA0AAAAAQEKABgAAAAAgIUADAAAAAJAQoAEAAAAASAjQAAAAAAAkBGgAAAAAABICNAAAAAAACQEaAAAAAICEAA0AAAAAQEKABgAAAAAgIUADAAAAAJAQoAEAAAAASAjQAAAAAAAkBGgAAAAAABICNAAAAAAACQEaAAAAAICEAA0AAAAAQEKABgAAAAAgIUADAAAAAJAQoAEAAAAASAjQAAAAAAAkBGgAAAAAABICNAAAAAAACQEaAAAAAICEAA0AAAAAQEKABgAAAAAgIUADAAAAAJDYjx4AAIDva84ZXXmMEV25060GAAAcxQloAAAAAAASAjQAAAAAAAkBGgAAAACAhAANAAAAAEBCgAYAAAAAICFAAwAAAACQEKABAAAAAEgI0AAAAAAAJARoAAAAAAASAjQAAAAAAAkBGgAAAACAhAANAAAAAEBCgAYAAAAAICFAAwAAAACQEKABAAAAAEgI0AAAAAAAJARoAAAAAAASAjQAAAAAAAkBGgAAAACAhAANAAAAAEBCgAYAAAAAICFAAwAAAACQEKABAAAAAEgI0AAAAAAAJARoAAAAAAASAjQAAAAAAAkBGgAAAACAhAANAAAAAEBCgAYAAAAAILEfPQAAAJ9jjHH0CAuZcx49wtu8gwAAXI8T0AAAAAAAJARoAAAAAAASAjQAAAAAAAkBGgAAAACAhAANAAAAAEBCgAYAAAAAICFAAwAAAACQEKABAAAAAEgI0AAAAAAAJARoAAAAAAASAjQAAAAAAAkBGgAAAACAhAANAAAAAEBCgAYAAAAAICFAAwAAAACQEKABAAAAAEgI0AAAAAAAJARoAAAAAAASAjQAAAAAAAkBGgAAAACAhAANAAAAAEBCgAYAAAAAICFAAwAAAACQEKABAAAAAEgI0AAAAAAAJARoAAAAAAASAjQAAAAAAAkBGgAAAACAhAANAAAAAEBiP3oAAIDvZc559AhvG2NEVz7janS61fAOPutWAwCA/3MCGgAAAACAhAANAAAAAEBCgAYAAAAAICFAAwAAAACQEKABAAAAAEgI0AAAAAAAJARoAAAAAAASAjQAAAAAAAkBGgAAAACAhAANAAAAAEBCgAYAAAAAICFAAwAAAACQEKABAAAAAEgI0AAAAAAAJARoAAAAAAASAjQAAAAAAAkBGgAAAACAhAANAAAAAEBCgAYAAAAAICFAAwAAAACQEKABAAAAAEgI0AAAAAAAJARoAAAAAAASAjQAAAAAAAkBGgAAAACAhAANAAAAAEBCgAYAAAAAICFAAwAAAACQEKABAAAAAEjsRw8AALCiOefRIyykW40xRnRlntnPz+xnAICv5AQ0AAAAAAAJARoAAAAAgIQADQAAAABAQoAGAAAAACAhQAMAAAAAkBCgAQAAAABICNAAAAAAACQEaAAAAAAAEgI0AAAAAAAJARoAAAAAgIQADQAAAABAQoAGAAAAACAhQAMAAAAAkBCgAQAAAABICNAAAAAAACQEaAAAAAAAEgI0AAAAAAAJARoAAAAAgIQADQAAAABAQoAGAAAAACAhQAMAAAAAkBCgAQAAAABICNAAAAAAACQEaAAAAAAAEgI0AAAAAAAJARoAAAAAgIQADQAAAABAQoAGAAAAACAhQAMAAAAAkNiPHgAA4HsZY0RXnnNGV+6ccWYAAOB1TkADAAAAAJAQoAEAAAAASAjQAAAAAAAkBGgAAAAAABICNAAAAAAACQEaAAAAAICEAA0AAAAAQEKABgAAAAAgIUADAAAAAJAQoAEAAAAASAjQAAAAAAAkBGgAAAAAABICNAAAAAAACQEaAAAAAICEAA0AAAAAQEKABgAAAAAgIUADAAAAAJAQoAEAAAAASAjQAAAAAAAkBGgAAAAAABICNAAAAAAACQEaAAAAAICEAA0AAAAAQEKABgAAAAAgIUADAAAAAJAQoAEAAAAASAjQAAAAAAAkBGgAAAAAABICNAAAAAAAif3oAQAAvpc559EjwAmMMaIrewYBAL6SE9AAAAAAACQEaAAAAAAAEgI0AAAAAAAJARoAAAAAgIQADQAAAABAQoAGAAAAACAhQAMAAAAAkBCgAQAAAABICNAAAPBfu3aM2zYQBFB046UaVbr/QdVQC6ZIE8BIKn/Rkt87wGCwlJqPAQAAEgI0AAAAAAAJARoAAAAAgIQADQAAAABAQoAGAAAAACAhQAMAAAAAkBCgAQAAAABICNAAAAAAACQEaAAAAAAAEgI0AAAAAAAJARoAAAAAgIQADQAAAABAQoAGAAAAACAhQAMAAAAAkBCgAQAAAABICNAAAAAAACQEaAAAAAAAEgI0AAAAAAAJARoAAAAAgIQADQAAAABAQoAGAAAAACCxnb0AAAAwxhhzzmjyWiua3HnFnQEA+MwFNAAAAAAACQEaAAAAAICEAA0AAAAAQEKABgAAAAAgIUADAAAAAJAQoAEAAAAASAjQAAAAAAAkBGgAAAAAABICNAAAAAAACQEaAAAAAICEAA0AAAAAQEKABgAAAAAgIUADAAAAAJAQoAEAAAAASAjQAAAAAAAkBGgAAAAAABICNAAAAAAACQEaAAAAAICEAA0AAAAAQEKABgAAAAAgIUADAAAAAJAQoAEAAAAASAjQAAAAAAAkBGgAAAAAABICNAAAAAAACQEaAAAAAICEAA0AAAAAQEKABgAAAAAgIUADAAAAAJDYzl4AAOA7mnNGk9da0eSO13gOr/Ec3e8ZAIDPXEADAAAAAJAQoAEAAAAASAjQAAAAAAAkBGgAAAAAABICNAAAAAAACQEaAAAAAICEAA0AAAAAQEKABgAAAAAgIUADAAAAAJAQoAEAAAAASAjQAAAAAAAkBGgAAAAAABICNAAAAAAACQEaAAAAAICEAA0AAAAAQEKABgAAAAAgIUADAAAAAJAQoAEAAAAASAjQAAAAAAAkBGgAAAAAABICNAAAAAAACQEaAAAAAICEAA0AAAAAQEKABgAAAAAgIUADAAAAAJAQoAEAAAAASAjQAAAAAAAkBGgAAAAAABICNAAAAAAAie3sBQAAfpY5ZzR5rfVyk+Ffun8KAADP5AIaAAAAAICEAA0AAAAAQEKABgAAAAAgIUADAAAAAJAQoAEAAAAASAjQAAAAAAAkBGgAAAAAABICNAAAAAAACQEaAAAAAICEAA0AAAAAQEKABgAAAAAgIUADAAAAAJAQoAEAAAAASAjQAAAAAAAkBGgAAAAAABICNAAAAAAACQEaAAAAAICEAA0AAAAAQEKABgAAAAAgIUADAAAAAJAQoAEAAAAASAjQAAAAAAAkBGgAAAAAABICNAAAAAAACQEaAAAAAICEAA0AAAAAQEKABgAAAAAgIUADAAAAAJAQoAEAAAAASGxnLwAAwNeYc0aT11rR5Ffknf/WvQYAAO/BBTQAAAAAAAkBGgAAAACAhAANAAAAAEBCgAYAAAAAICFAAwAAAACQEKABAAAAAEgI0AAAAAAAJARoAAAAAAASAjQAAAAAAAkBGgAAAACAhAANAAAAAEBCgAYAAAAAICFAAwAAAACQEKABAAAAAEgI0AAAAAAAJARoAAAAAAASAjQAAAAAAAkBGgAAAACAhAANAAAAAEBCgAYAAAAAICFAAwAAAACQEKABAAAAAEgI0AAAAAAAJARoAAAAAAASAjQAAAAAAAkBGgAAAACAhAANAAAAAEBCgAYAAAAAICFAAwAAAACQ2M5eAACA727OGU1ea0WTO6+4c/cFAQDg/1xAAwAAAACQEKABAAAAAEgI0AAAAAAAJARoAAAAAAASAjQAAAAAAAkBGgAAAACAhAANAAAAAEBCgAYAAAAAICFAAwAAAACQEKABAAAAAEgI0AAAAAAAJARoAAAAAAASAjQAAAAAAAkBGgAAAACAhAANAAAAAEBCgAYAAAAAICFAAwAAAACQEKABAAAAAEgI0AAAAAAAJARoAAAAAAASAjQAAAAAAAkBGgAAAACAhAANAAAAAEBCgAYAAAAAICFAAwAAAACQEKABAAAAAEgI0AAAAAAAJARoAAAAAAASAjQAAAAAAInt7AUAAPi55pxnrwAAAIRcQAMAAAAAkBCgAQAAAABICNAAAAAAACQEaAAAAAAAEgI0AAAAAAAJARoAAAAAgIQADQAAAABAQoAGAAAAACAhQAMAAAAAkBCgAQAAAABICNAAAAAAACQEaAAAAAAAEgI0AAAAAAAJARoAAAAAgIQADQAAAABAQoAGAAAAACAhQAMAAAAAkBCgAQAAAABICNAAAAAAACQEaAAAAAAAEgI0AAAAAAAJARoAAAAAgIQADQAAAABAQoAGAAAAACAhQAMAAAAAkBCgAQAAAABICNAAAAAAACQEaAAAAAAAEgI0AAAAAAAJARoAAAAAgIQADQAAAABAQoAGAAAAACAhQAMAAAAAkBCgAQAAAABICNAAAAAAACQEaAAAAAAAEgI0AAAAAAAJARoAAAAAgIQADQAAAABAQoAGAAAAACAhQAMAAAAAkBCgAQAAAABICNAAAAAAACQEaAAAAAAAEgI0AAAAAAAJARoAAAAAgIQADQAAAABAQoAGAAAAACAhQAMAAAAAkBCgAQAAAABICNAAAAAAACQEaAAAAAAAEgI0AAAAAAAJARoAAAAAgIQADQAAAABAQoAGAAAAACAhQAMAAAAAkBCgAQAAAABICNAAAAAAACQEaAAAAAAAEgI0AAAAAAAJARoAAAAAgIQADQAAAABAQoAGAAAAACAhQAMAAAAAkBCgAQAAAABICNAAAAAAACQEaAAAAAAAEgI0AAAAAAAJARoAAAAAgIQADQAAAABAQoAGAAAAACAhQAMAAAAAkBCgAQAAAABICNAAAAAAACQEaAAAAADAb55rAAAETElEQVQAEgI0AAAAAAAJARoAAAAAgIQADQAAAABAQoAGAAAAACAhQAMAAAAAkBCgAQAAAABICNAAAAAAACQEaAAAAAAAEgI0AAAAAAAJARoAAAAAgIQADQAAAABAQoAGAAAAACAhQAMAAAAAkBCgAQAAAABICNAAAAAAACQEaAAAAAAAEgI0AAAAAAAJARoAAAAAgIQADQAAAABAQoAGAAAAACAhQAMAAAAAkBCgAQAAAABICNAAAAAAACQEaAAAAAAAEgI0AAAAAAAJARoAAAAAgIQADQAAAABAQoAGAAAAACAhQAMAAAAAkBCgAQAAAABICNAAAAAAACQEaAAAAAAAEgI0AAAAAAAJARoAAAAAgIQADQAAAABAQoAGAAAAACAhQAMAAAAAkBCgAQAAAABICNAAAAAAACQEaAAAAAAAEgI0AAAAAAAJARoAAAAAgIQADQAAAABAQoAGAAAAACAhQAMAAAAAkBCgAQAAAABICNAAAAAAACQEaAAAAAAAEgI0AAAAAAAJARoAAAAAgIQADQAAAABAQoAGAAAAACAhQAMAAAAAkBCgAQAAAABICNAAAAAAACQEaAAAAAAAEgI0AAAAAAAJARoAAAAAgIQADQAAAABAQoAGAAAAACAhQAMAAAAAkBCgAQAAAABICNAAAAAAACQEaAAAAAAAEgI0AAAAAAAJARoAAAAAgIQADQAAAABAQoAGAAAAACAhQAMAAAAAkBCgAQAAAABICNAAAAAAACQEaAAAAAAAEgI0AAAAAACJX7fb7Xq9nr0GAAAAAABv5X6/u4AGAAAAACAhQAMAAAAAkBCgAQAAAABICNAAAAAAACQEaAAAAAAAEgI0AAAAAAAJARoAAAAAgIQADQAAAABAQoAGAAAAACAhQAMAAAAAkBCgAQAAAABICNAAAAAAACQEaAAAAAAAEgI0AAAAAAAJARoAAAAAgIQADQAAAABAQoAGAAAAACAhQAMAAAAAkBCgAQAAAABICNAAAAAAACQEaAAAAAAAEgI0AAAAAAAJARoAAAAAgIQADQAAAABAQoAGAAAAACAhQAMAAAAAkBCgAQAAAABICNAAAAAAACQEaAAAAAAAEgI0AAAAAAAJARoAAAAAgIQADQAAAABAQoAGAAAAACAhQAMAAAAAkBCgAQAAAABICNAAAAAAACQEaAAAAAAAEgI0AAAAAAAJARoAAAAAgIQADQAAAABAQoAGAAAAACAhQAMAAAAAkBCgAQAAAABICNAAAAAAACQEaAAAAAAAEgI0AAAAAAAJARoAAAAAgIQADQAAAABAQoAGAAAAACAhQAMAAAAAkBCgAQAAAABICNAAAAAAACQEaAAAAAAAEgI0AAAAAAAJARoAAAAAgIQADQAAAABA4mOMcRzH2WsAAAAAAPA+/mTnjzHGvu8aNAAAAAAAX+I4jn3fxxjb5XLZ9/3xeJy9EgAAAAAA7+NyufwGQ/t+AEqJ/CAAAAAASUVORK5CYII=;" parent="1" vertex="1">
          <mxGeometry x="311" y="40" width="195.25" height="110" as="geometry" />
        </mxCell>
        <mxCell id="yskXko5ceN0rjEHfLMD1-3" value="" style="shape=image;aspect=fixed;image=data:image/png,iVBORw0KGgoAAAANSUhEUgAAB4AAAAQ4CAIAAABnsVYUAAAAA3NCSVQICAjb4U/gAAAAGXRFWHRTb2Z0d2FyZQBnbm9tZS1zY3JlZW5zaG907wO/PgAAIABJREFUeJzs2rtuG0kURdGmbzNXov//UKLgCZwIMGbGMrRVfKyVKSkclJrJRl3e399vt9sBAAAAAABf53q9nrfb7TzP6/V6uVx27wEAAAAA4OH9/Pnzdrvdbrcfx3GozwAAAAAAfJXL5XK9Xo/j+PHrj917AAAAAAB4Hr+y84/dMwAAAAAAeE4CNAAAAAAACQEaAAAAAICEAA0AAAAAQEKABgAAAAAgIUADAAAAAJAQoAEAAAAASAjQAAAAAAAkBGgAAAAAABICNAAAAAAACQEaAAAAAICEAA0AAAAAQEKABgAAAAAgIUADAAAAAJAQoAEAAAAASAjQAAAAAAAkBGgAAAAAABICNAAAAAAACQEaAAAAAICEAA0AAAAAQEKABgAAAAAgIUADAAAAAJAQoAEAAAAASAjQAAAAAAAkBGgAAAAAABICNAAAAAAACQEaAAAAAICEAA0AAAAAQEKABgAAAAAgIUADAAAAAJAQoAEAAAAASAjQAAAAAAAkBGgAAAAAABICNAAAAAAACQEaAAAAAICEAA0AAAAAQEKABgAAAAAgIUADAAAAAJAQoAEAAAAASAjQAAAAAAAkBGgAAAAAABICNAAAAAAACQEaAAAAAICEAA0AAAAAQEKABgAAAAAgIUADAAAAAJAQoAEAAAAASAjQAAAAAAAkBGgAAAAAABICNAAAAAAACQEaAAAAAICEAA0AAAAAQEKABgAAAAAgIUADAAAAAJAQoAEAAAAASAjQAAAAAAA03t7edk8AAAAAAODZvL29eQENAAAAAEBCgAYAAAAAICFAAwAAAACQEKABAAAAAEgI0AAAAAAAJARoAAAAAAASAjQAAAAAAAkBGgAAAACAhAANAAAAAEBCgAYAAAAAICFAAwAAAACQEKABAAAAAEgI0AAAAAAAJARoAAAAAAASAjQAAAAAAAkBGgAAAACAhAANAAAAAEBCgAYAAAAAICFAAwAAAACQEKABAAAAAEgI0AAAAAAAJARoAAAAAAASAjQAAAAAAAkBGgAAAACAhAANAAAAAEBCgAYAAAAAICFAAwAAAACQEKABAAAAAEgI0AAAAAAAJARoAAAAAAASAjQAAAAAAAkBGgAAAACAhAANAAAAAEBCgAYAAAAAICFAAwAAAACQEKABAAAAAEgI0AAAAAAAJARoAAAAAAASAjQAAAAAAAkBGgAAAACAhAANAAAAAEBCgAYAAAAAICFAAwAAAACQEKABAAAAAEgI0AAAAAAAJARoAAAAAAASAjQAAAAAAAkBGgAAAACAhAANAAAAAEBCgAYAAAAAICFAAwAAAACQEKABAAAAAEgI0AAAAAAAJARoAAAAAAASAjQAAAAAAAkBGgAAAACAhAANAAAAAEBCgAYAAAAAICFAAwAAAACQEKABAAAAAEgI0AAAAAAAJARoAAAAAAASAjQAAAAAAAkBGgAAAACAhAANAAAAAEBCgAYAAAAAICFAAwAAAACQEKABAAAAAEgI0AAAAAAAJARoAAAAAAASAjQAAAAAAAkBGgAAAACAhAANAAAAAEBCgAYAAAAAICFAAwAAAACQEKABAAAAAEgI0AAAAAAAJARoAAAAAAASAjQAAAAAAAkBGgAAAACAhAANAAAAAEBCgAYAAAAAICFAAwAAAACQEKABAAAAAEgI0AAAAAAAJARoAAAAAAASAjQAAAAAAAkBGgAAAACAhAANAAAAAEBCgAYAAAAAICFAAwAAAACQEKABAAAAAEgI0AAAAAAAJARoAAAAAAASAjQAAAAAAAkBGgAAAACAhAANAAAAAEBCgAYAAAAAICFAAwAAAACQEKABAAAAAEgI0AAAAAAAJARoAAAAAAASAjQAAAAAAAkBGgAAAACAhAANAAAAAEBCgAYAAAAAICFAAwAAAACQEKABAAAAAEgI0AAAAAAAJARoAAAAAAASAjQAAAAAAAkBGgAAAACAhAANAAAAAEBCgAYAAAAAICFAAwAAAACQEKABAAAAAEgI0AAAAAAAJARoAAAAAAASAjQAAAAAAAkBGgAAAACAhAANAAAAAEBCgAYAAAAAICFAAwAAAACQEKABAAAAAEgI0AAAAAAAJARoAAAAAAASAjQAAAAAAAkBGgAAAACAhAANAAAAAEBCgAYAAAAAICFAAwAAAACQEKABAAAAAEgI0AAAAAAAJARoAAAAAAASAjQAAAAAAAkBGgAAAACAhAANAAAAAEBCgAYAAAAAICFAAwAAAACQEKABAAAAAEgI0AAAAAAAJARoAAAAAAASAjQAAAAAAAkBGgAAAACAhAANAAAAAEBCgAYAAAAAICFAAwAAAACQEKABAAAAAEgI0AAAAAAAJARoAAAAAAASAjQAAAAAAAkBGgAAAACAhAANAAAAAEBCgAYAAAAAICFAAwAAAACQEKABAAAAAEgI0AAAAAAAJARoAAAAAAASAjQAAAAAAAkBGgAAAACAhAANAAAAAEBCgAYAAAAAICFAAwAAAACQEKABAAAAAEgI0AAAAAAAJARoAAAAAAASAjQAAAAAAAkBGgAAAACAhAANAAAAAEBCgAYAAAAAICFAAwAAAACQEKABAAAAAEgI0AAAAAAAJARoAAAAAAASAjQAAAAAAAkBGgAAAACAhAANAAAAAEBCgAYAAAAAICFAAwAAAACQEKABAAAAAEgI0AAAAAAAJARoAAAAAAASAjQAAAAAAAkBGgAAAACAhAANAAAAAEBCgAYAAAAAICFAAwAAAACQEKABAAAAAEgI0AAAAAAAJARoAAAAAAASAjQAAAAAAAkBGgAAAACAhAANAAAAAEBCgAYAAAAAIHEex7HW2j3jc2Zm9wTu1MN9zA/KbxAAAACAP+EFNAAAAAAACQEaAAAAAICEAA0AAAAAQEKABgAAAAAgIUADAAAAAJAQoAEAAAAASAjQAAAAAAAkBGgAAAAAABICNAAAAAAACQEaAAAAAICEAA0AAAAAQEKABgAAAAAgIUADAAAAAJAQoAEAAAAASAjQAAAAAAAkBGgAAAAAABICNAAAAAAACQEaAAAAAICEAA0AAAAAQEKABgAAAAAgIUADAAAAAJAQoAEAAAAASAjQAAAAAAAkBGgAAAAAABICNAAAAAAACQEaAAAAAICEAA0AAAAAQEKABgAAAAAgIUADAAAAAJAQoAEAAAAASAjQAAAAAAAkBGgAAAAAABICNAAAAAAACQEaAAAAAICEAA0AAAAAQEKABgAAAAAgIUADAAAAAJAQoAEAAAAASAjQAAAAAAAkBGgAAAAAABICNAAAAAAACQEaAAAAAICEAA0AAAAAQEKABgAAAAAgce4eAADA11hr7Z7waTMTnew2PnIbAADs4gU0AAAAAAAJARoAAAAAgIQADQAAAABAQoAGAAAAACAhQAMAAAAAkBCgAQAAAABICNAAAAAAACQEaAAAAAAAEgI0AAAAAAAJARoAAAAAgIQADQAAAABAQoAGAAAAACAhQAMAAAAAkBCgAQAAAABInMdxzMzuGZ+z1to9gTv1cB/z4XsGAAAA4Hl5AQ0AAAAAQEKABgAAAAAgIUADAAAAAJAQoAEAAAAASAjQAAAAAAAkBGgAAAAAABICNAAAAAAACQEaAAAAAICEAA0AAAAAQEKABgAAAAAgIUADAAAAAJAQoAEAAAAASAjQAAAAAAAkBGgAAAAAABLn7gEAALyutVZ08sxEJ3e62wAAgF28gAYAAAAAICFAAwAAAACQEKABAAAAAEgI0AAAAAAAJARoAAAAAAASAjQAAAAAAAkBGgAAAACAhAANAAAAAEBCgAYAAAAAICFAAwAAAACQEKABAAAAAEgI0AAAAAAAJARoAAAAAAASAjQAAAAAAAkBGgAAAACAhAANAAAAAEBCgAYAAAAAICFAAwAAAACQEKABAAAAAEgI0AAAAAAAJARoAAAAAAASAjQAAAAAAAkBGgAAAACAhAANAAAAAEBCgAYAAAAAICFAAwAAAACQEKABAAAAAEgI0AAAAAAAJARoAAAAAAAS5+4BAAB8jZnZPeGOrLV2T/g0/0EAAJ6PF9AAAAAAACQEaAAAAAAAEgI0AAAAAAAJARoAAAAAgIQADQAAAABAQoAGAAAAACAhQAMAAAAAkBCgAQAAAABICNAAAAAAACQEaAAAAAAAEgI0AAAAAAAJARoAAAAAgIQADQAAAABAQoAGAAAAACBx7h7wN2Zm9wQAAAAAAP6HF9AAAAAAACQEaAAAAAAAEgI0AAAAAAAJARoAAAAAgIQADQAAAABAQoAGAAAAACAhQAMAAAAAkBCgAQAAAABICNAAAAAAACQEaAAAAAAAEgI0AAAAAAAJARoAAAAAgIQADQAAAABAQoAGAAAAACBx7h4AAPBa1lq7J3zazEQnP+JtdLrb8B/8qLsNAAB+5wU0AAAAAAAJARoAAAAAgIQADQAAAABAQoAGAAAAACAhQAMAAAAAkBCgAQAAAABICNAAAAAAACQEaAAAAAAAEgI0AAAAAAAJARoAAAAAgIQADQAAAABAQoAGAAAAACAhQAMAAAAAkBCgAQAAAABICNAAAAAAACQEaAAAAAAAEgI0AAAAAAAJARoAAAAAgIQADQAAAABAQoAGAAAAACAhQAMAAAAAkBCgAQAAAABICNAAAAAAACQEaAAAAAAAEgI0AAAAAAAJARoAAAAAgIQADQAAAABAQoAGAAAAACAhQAMAAAAAkDh3DwAAuEdrrd0T7kh3GzMTncxHvuePfM8AAN/JC2gAAAAAABICNAAAAAAACQEaAAAAAICEAA0AAAAAQEKABgAAAAAgIUADAAAAAJAQoAEAAAAASAjQAAAAAAAkBGgAAAAAABICNAAAAAAACQEaAAAAAICEAA0AAAAAQEKABgAAAAAgIUADAAAAAJA4dw/4G2ut3RM+bWZ2T3gJj/htAAAAAMCz8gIaAAAAAICEAA0AAAAAQEKABgAAAAAgIUADAAAAAJAQoAEAAAAASAjQAAAAAAAkBGgAAAAAABICNAAAAAAACQEaAAAAAICEAA0AAAAAQEKABgAAAAAgIUADAAAAAJAQoAEAAAAASAjQAAAAAAAkzt0DAABey8xEJ6+1opM7j7gZAAD4c15AAwAAAACQEKABAAAAAEgI0AAAAAAAJARoAAAAAAASAjQAAAAAAAkBGgAAAACAhAANAAAAAEBCgAYAAAAAICFAAwAAAACQEKABAAAAAEgI0AAAAAAAJARoAAAAAAASAjQAAAAAAAkBGgAAAACAhAANAAAAAEBCgAYAAAAAICFAAwAAAACQEKABAAAAAEgI0AAAAAAAJARoAAAAAAASAjQAAAAAAAkBGgAAAACAhAANAAAAAEBCgAYAAAAAICFAAwAAAACQEKABAAAAAEgI0AAAAAAAJARoAAAAAAASAjQAAAAAAIlz9wAAgNey1to9AR7AzEQn+w0CAHwnL6ABAAAAAEgI0AAAAAAAJARoAAAAAAASAjQAAAAAAAkBGgAAAACAhAANAAAAAEBCgAYAAAAAICFAAwAAAACQEKABAAAAAEgI0AAAAAAAJARoAAAAAAASAjQAAAAAAAkBGgAAAACAhAANAAAAAEDi3D3gb8zM7gncqUf8NtZauycAAAAAQMILaAAAAAAAEgI0AAAAAAAJARoAAAAAgIQADQAAAABAQoAGAAAAACAhQAMAAAAAkBCgAQAAAABICNAAAAAAACQEaAAAAAAAEgI0AAAAAAAJARoAAAAAgIQADQAAAABAQoAGAAAAACAhQAMAAAAAkDh3DwAAAI7jOGYmOnmtFZ3cecTNAAD8zgtoAAAAAAASAjQAAAAAAAkBGgAAAACAhAANAAAAAEBCgAYAAAAAICFAAwAAAACQEKABAAAAAEgI0AAAAAAAJARoAAAAAAASAjQAAAAAAAkBGgAAAACAhAANAAAAAEBCgAYAAAAAICFAAwAAAACQEKABAAAAAEgI0AAAAAAAJARoAAAAAAASAjQAAAAAAAkBGgAAAACAhAANAAAAAEBCgAYAAAAAICFAAwAAAACQEKABAAAAAEgI0AAAAAAAJARoAAAAAAASAjQAAAAAAAkBGgAAAACAhAANAAAAAEBCgAYAAAAAIHHuHgAAcI9mJjp5rRWd3HEb38NtfI/uewYA4HdeQAMAAAAAkBCgAQAAAABICNAAAAAAACQEaAAAAAAAEgI0AAAAAAAJARoAAAAAgIQADQAAAABAQoAGAAAAACAhQAMAAAAAkBCgAQAAAABICNAAAAAAACQEaAAAAAAAEgI0AAAAAAAJARoAAAAAgIQADQAAAABAQoAGAAAAACAhQAMAAAAAkBCgAQAAAABICNAAAAAAACQEaAAAAAAAEgI0AAAAAAAJARoAAAAAgIQADQAAAABAQoAGAAAAACAhQAMAAAAAkBCgAQAAAABICNAAAAAAACQEaAAAAAAAEgI0AAAAAACJc/cAAIDXMjPRyWuthzsZ/k33SwEA4Dt5AQ0AAAAAQEKABgAAAAAgIUADAAAAAJAQoAEAAAAASAjQAAAAAAAkBGgAAAAAABICNAAAAAAACQEaAAAAAICEAA0AAAAAQEKABgAAAAAgIUADAAAAAJAQoAEAAAAASAjQAAAAAAAkBGgAAAAAABICNAAAAAAACQEaAAAAAICEAA0AAAAAQEKABgAAAAAgIUADAAAAAJAQoAEAAAAASAjQAAAAAAAkBGgAAAAAABICNAAAAAAACQEaAAAAAICEAA0AAAAAQEKABgAAAAAgIUADAAAAAJAQoAEAAAAASAjQAAAAAAAkzt0DAAD4GjMTnbzWik5+RO75o+42AAB4Dl5AAwAAAACQEKABAAAAAEgI0AAAAAAAJARoAAAAAAASAjQAAAAAAAkBGgAAAACAhAANAAAAAEBCgAYAAAAAICFAAwAAAACQEKABAAAAAEgI0AAAAAAAJARoAAAAAAASAjQAAAAAAAkBGgAAAACAxLl7AHyltdbuCZ82M7snAAAAAEDCC2gAAAAAABICNAAAAAAACQEaAAAAAICEAA0AAAAAQEKABgAAAAAgIUADAAAAAJAQoAEAAAAASAjQAAAAAAAkBGgAAAAAABICNAAAAAAACQEaAAAAAICEAA0AAAAAQEKABgAAAAAgIUADAAAAAJA4dw8AAODezUx08lorOrnziJu7/yAAAPw3L6ABAAAAAEgI0AAAAAAAJARoAAAAAAASAjQAAAAAAAkBGgAAAACAhAANAAAAAEBCgAYAAAAAICFAAwAAAACQEKABAAAAAEgI0AAAAAAAJARoAAAAAAASAjQAAAAAAAkBGgAAAACAhAANAAAAAEBCgAYAAAAAICFAAwAAAACQEKABAAAAAEgI0AAAAAAAJARoAAAAAAASAjQAAAAAAAkBGgAAAACAhAANAAAAAEBCgAYAAAAAICFAAwAAAACQEKABAAAAAEgI0AAAAAAAJARoAAAAAAASAjQAAAAAAAkBGgAAAACAxLl7AAAAr2tmdk8AAABCXkADAAAAAJAQoAEAAAAASAjQAAAAAAAkBGgAAAAAABICNAAAAAAACQEaAAAAAICEAA0AAAAAQEKABgAAAAAgIUADAAAAAJAQoAEAAAAASAjQAAAAAAAkBGgAAAAAABICNAAAAAAACQEaAAAAAICEAA0AAAAAQEKABgAAAAAgIUADAAAAAJAQoAEAAAAASAjQAAAAAAAkBGgAAAAAABICNAAAAAAACQEaAAAAAICEAA0AAAAAQEKABgAAAAAgIUADAAAAAJAQoAEAAAAASAjQAAAAAAAkBGgAAAAAABICNAAAAAAACQEaAAAAAICEAA0AAAAAQEKABgAAAAAgIUADAAAAAJAQoAEAAAAASAjQAAAAAAAkBGgAAAAAABICNAAAAAAACQEaAAAAAICEAA0AAAAAQEKABgAAAAAgIUAD/7Rrx0ptAwEURRVWbqj4/w+lETtOkSqdleR6HXFOrdE8ZJmBOwsAAAAACQEaAAAAAICEAA0AAAAAQEKABgAAAAAgIUADAAAAAJAQoAEAAAAASAjQAAAAAAAkBGgAAAAAABICNAAAAAAACQEaAAAAAICEAA0AAAAAQEKABgAAAAAgIUADAAAAAJAQoAEAAAAASAjQAAAAAAAkBGgAAAAAABICNAAAAAAACQEaAAAAAICEAA0AAAAAQEKABgAAAAAgIUADAAAAAJAQoAEAAAAASAjQAAAAAAAkBGgAAAAAABICNAAAAAAACQEaAAAAAICEAA0AAAAAQEKABgAAAAAgIUADAAAAAJAQoAEAAAAASAjQAAAAAAAkBGgAAAAAABICNAAAAAAACQEaAAAAAICEAA0AAAAAQEKABgAAAAAgIUADAAAAAJAQoAEAAAAASAjQAAAAAAAkBGgAAAAAABICNAAAAAAACQEaAAAAAICEAA0AAAAAQEKABgAAAAAgIUADAAAAAJAQoAEAAAAASAjQAAAAAAAkBGgAAAAAABICNAAAAAAACQEaAAAAAICEAA0AAAAAQEKABgAAAAAgIUADAAAAAJAQoAEAAAAASAjQAAAAAAAkBGgAAAAAABICNAAAAAAACQEaAAAAAICEAA0AAAAAQEKABgAAAAAgIUADAAAAAJAQoAEAAAAASAjQAAAAAAAkBGgAAAAAABICNAAAAAAACQEaAAAAAICEAA0AAAAAQEKABgAAAAAgIUADAAAAAJAQoAEAAAAASAjQAAAAAAAkBGgAAAAAABICNAAAAAAACQEaAAAAAICEAA0AAAAAQEKABgAAAAAgIUADAAAAAJAQoAEAAAAASAjQAAAAAAAkBGgAAAAAABICNAAAAAAACQEaAAAAAICEAA0AAAAAQEKABgAAAAAgIUADAAAAAJAQoAEAAAAASAjQAAAAAAAkBGgAAAAAABICNAAAAAAACQEaAAAAAICEAA0AAAAAQEKABgAAAAAgIUADAAAAAJAQoAEAAAAASOyrB/yJOefqCaeNMVZPOM1zfg7PGQAAAICrcgIaAAAAAICEAA0AAAAAQEKABgAAAAAgIUADAAAAAJAQoAEAAAAASAjQAAAAAAAkBGgAAAAAABICNAAAAAAACQEaAAAAAICEAA0AAAAAQEKABgAAAAAgIUADAAAAAJAQoAEAAAAASAjQAAAAAAAkBGgAAAAAABICNAAAAAAACQEaAAAAAICEAA0AAAAAQEKABgAAAAAgIUADAAAAAJAQoAEAAAAASAjQAAAAAAAkBGgAAAAAABICNAAAAAAACQEaAAAAAICEAA0AAAAAQEKABgAAAAAgIUADAAAAAJAQoAEAAAAASAjQAAAAAAAkBGgAAAAAABICNAAAAAAACQEaAAAAAICEAA0AAAAAQEKABgAAAAAgIUADAAAAAJAQoAEAAAAASAjQAAAAAAAkBGgAAAAAABICNAAAAAAACQEaAAAAAICEAA0AAAAAQEKABgAAAAAgIUADAAAAAJAQoAEAAAAASAjQAAAAAAAkBGgAAAAAABICNAAAAAAACQEaAAAAAICEAA0AAAAAQEKABgAAAAAgIUADAAAAAJAQoAEAAAAASAjQAAAAAAAkBGgAAAAAABICNAAAAAAACQEaAAAAAICEAA0AAAAAQEKABgAAAAAgIUADAAAAAJAQoAEAAAAASAjQAAAAAAAkBGgAAAAAABICNAAAAAAACQEaAAAAAICEAA0AAAAAQEKABgAAAAAgIUADAAAAAJAQoAEAAAAASAjQAAAAAAAkBGgAAAAAABICNAAAAAAACQEaAAAAAICEAA0AAAAAQEKABgAAAAAgIUADAAAAAJAQoAEAAAAASAjQAAAAAAAkBGgAAAAAABICNAAAAAAACQEaAAAAAICEAA0AAAAAQEKABgAAAAAgIUADAAAAAJAQoAEAAAAASAjQAAAAAAAkBGgAAAAAABICNAAAAAAACQEaAAAAAIDEvnoAAHB9c87HLx5jdEse9z9uBh7h2w0A8ExOQAMAAAAAkBCgAQAAAABICNAAAAAAACQEaAAAAAAAEgI0AAAAAAAJARoAAAAAgIQADQAAAABAQoAGAAAAACAhQAMAAAAAkBCgAQAAAABICNAAAAAAACQEaAAAAAAAEgI0AAAAAAAJARoAAAAAgIQADQAAAABAQoAGAAAAACAhQAMAAAAAkBCgAQAAAABICNAAAAAAACQEaAAAAAAAEgI0AAAAAAAJARoAAAAAgIQADQAAAABAQoAGAAAAACAhQAMAAAAAkBCgAQAAAABICNAAAAAAACQEaAAAAAAAEgI0AAAAAACJfdu2OefqGdfnIT+H5wzwmsYYj1986pf5i9z5lBeZccqLfCin/I/vBgAAXI8T0AAAAAAAJARoAAAAAAASAjQAAAAAAAkBGgAAAACAhAANAAAAAEBCgAYAAAAAICFAAwAAAACQEKABAAAAAEgI0AAAAAAAJARoAAAAAAASAjQAAAAAAAkBGgAAAACAhAANAAAAAEBCgAYAAAAAILGvHgAA8JsxxuMXzzmjO/OCXuTd8NYBAMDjnIAGAAAAACAhQAMAAAAAkBCgAQAAAABICNAAAAAAACQEaAAAAAAAEgI0AAAAAAAJARoAAAAAgIQADQAAAABAQoAGAAAAACAhQAMAAAAAkBCgAQAAAABICNAAAAAAACQEaAAAAAAAEgI0AAAAAAAJARoAAAAAgIQADQAAAABAQoAGAAAAACAhQAMAAAAAkBCgAQAAAABICNAAAAAAACQEaAAAAAAAEgI0AAAAAAAJARoAAAAAgIQADQAAAABAQoAGAAAAACAhQAMAAAAAkBCgAQAAAABICNAAAAAAACQEaAAAAAAAEvvqAQAALDDnXD0B1hhjrJ4AAPCNOAENAAAAAEBCgAYAAAAAICFAAwAAAACQEKABAAAAAEgI0AAAAAAAJARoAAAAAAASAjQAAAAAAAkBGgAAAACAhAANAAAAAEBCgAYAAACUgJ3mAAADuklEQVQAICFAAwAAAACQEKABAAAAAEgI0AAAAAAAJARoAAAAAAAS+7ZtY4zVMwAAvotTf3rNOa89A57v1PvsfyUAgL/kBDQAAAAAAAkBGgAAAACAhAANAAAAAEBCgAYAAAAAICFAAwAAAACQEKABAAAAAEgI0AAAAAAAJARoAAAAAAASAjQAAAAAAAkBGgAAAACAhAANAAAAAEBCgAYAAAAAICFAAwAAAACQEKABAAAAAEjsqwcAAPy5McbqCa0X+QG7Ge7M8/kEAQCeyQloAAAAAAASAjQAAAAAAAkBGgAAAACAhAANAAAAAEBCgAYAAAAAICFAAwAAAACQEKABAAAAAEgI0AAAAAAAJARoAAAAAAASAjQAAAAAAAkBGgAAAACAhAANAAAAAEBCgAYAAAAAICFAAwAAAACQEKABAAAAAEgI0AAAAAAAJARoAAAAAAASAjQAAAAAAAkBGgAAAACAhAANAAAAAEBCgAYAAAAAICFAAwAAAACQEKABAAAAAEgI0AAAAAAAJARoAAAAAAASAjQAAAAAAAkBGgAAAACAhAANAAAAAEBCgAYAAAAAIPHj4+Pj/f199QwAAAAAAC7l8/PTCWgAAAAAABICNAAAAAAACQEaAAAAAICEAA0AAAAAQEKABgAAAAAgIUADAAAAAJAQoAEAAAAASAjQAAAAAAAkBGgAAAAAABICNAAAAAAACQEaAAAAAICEAA0AAAAAQEKABgAAAAAgIUADAAAAAJAQoAEAAAAASAjQAAAAAAAkBGgAAAAAABICNAAAAAAACQEaAAAAAICEAA0AAAAAQEKABgAAAAAgIUADAAAAAJAQoAEAAAAASAjQAAAAAAAkBGgAAAAAABICNAAAAAAACQEaAAAAAICEAA0AAAAAQEKABgAAAAAgIUADAAAAAJAQoAEAAAAASAjQAAAAAAAkBGgAAAAAABICNAAAAAAACQEaAAAAAICEAA0AAAAAQEKABgAAAAAgIUADAAAAAJAQoAEAAAAASAjQAAAAAAAkBGgAAAAAABICNAAAAAAACQEaAAAAAICEAA0AAAAAQEKABgAAAAAgIUADAAAAAJAQoAEAAAAASAjQAAAAAAAkBGgAAAAAABICNAAAAAAACQEaAAAAAICEAA0AAAAAQEKABgAAAAAgIUADAAAAAJAQoAEAAAAASAjQAAAAAAAk3rZtu9/vq2cAAAAAAHAdv7Lz27Ztx3Fo0AAAAAAA/BP3+/04jm3b9tvtdhzH19fX6kkAAAAAAFzH7Xb7CS4L5JI8D5ZlAAAAAElFTkSuQmCC;" parent="1" vertex="1">
          <mxGeometry x="601" y="40" width="195.25" height="110" as="geometry" />
        </mxCell>
        <mxCell id="yskXko5ceN0rjEHfLMD1-4" value="&lt;b&gt;Press&lt;/b&gt;" style="triangle;whiteSpace=wrap;html=1;fillColor=#0050ef;fontColor=#ffffff;strokeColor=#001DBC;" parent="1" vertex="1">
          <mxGeometry x="241" y="55" width="60" height="80" as="geometry" />
        </mxCell>
        <mxCell id="yskXko5ceN0rjEHfLMD1-5" value="&lt;b&gt;Wait&lt;/b&gt;" style="triangle;whiteSpace=wrap;html=1;fillColor=#0050ef;fontColor=#ffffff;strokeColor=#001DBC;" parent="1" vertex="1">
          <mxGeometry x="521" y="55" width="60" height="80" as="geometry" />
        </mxCell>
      </root>
    </mxGraphModel>
  </diagram>
</mxfile>
